# xmcd
#
# Track frame offsets:
#	150
#	46619
#	106672
#	137687
#	158449
#	184763
#	204370
#
# Disc length: 2811 seconds
#
# Revision: 0
# Processed by: cddbd v1.5.2PL0 Copyright (c) Steve Scherf et al.
# Submitted via: EasyCDDAExtractor 10.2.0.1
#
DISCID=490af907
DTITLE=Johnny Cash - The Lowdown... The Interview
DYEAR=2007
DGENRE=Spoken Word
TTITLE0=Interview 1 (1990s)
TTITLE1=Interview 2 (1990s)
TTITLE2=Interview 3 (1980s)
TTITLE3=Interview 4 (1980s)
TTITLE4=Interview 5 (1980s)
TTITLE5=Interview 6 (1960s)
TTITLE6=Interview 7 (1950s)
EXTD=
EXTT0=
EXTT1=
EXTT2=
EXTT3=
EXTT4=
EXTT5=
EXTT6=
PLAYORDER=
